<svg xmlns="http://www.w3.org/2000/svg" viewBox="0 0 201.88 219.6"><defs><style>.cls-1{fill:#2c4c58;}.cls-2{fill:#ef711d;}</style></defs><g id="Layer_2" data-name="Layer 2"><g id="Layer_1-2" data-name="Layer 1"><path class="cls-1" d="M174.81,202.44a21.18,21.18,0,0,1-3.64,5.43,22.39,22.39,0,0,1-5.06,4.12,27.5,27.5,0,0,1-7.88,3,38.86,38.86,0,0,1-15.12,1.21c-3.81-.5-6.38-.87-8.34-3l0,0a9.76,9.76,0,0,1-2.2-6.49c-.24-10.84-.49-19.63-.63-26.16a26,26,0,0,0-1.08-7.35,25.36,25.36,0,0,0-49.63,7.35l.27,36.33a64,64,0,0,1-7,1.68,50.84,50.84,0,0,1-14.95.9c-4.36-.45-8.27-.85-12.62-3.39a25.73,25.73,0,0,1-9.26-9.67,26.39,26.39,0,0,1-3.11-15.4c0-.28.06-.55.1-.83.08-.55.18-1.1.3-1.64a29.48,29.48,0,0,1,4.6-10.36,56,56,0,0,1,3.73-4.86c.53-.62,1.07-1.23,1.62-1.84h0c.83-.91,1.69-1.8,2.56-2.67,1.75-1.75,3.57-3.42,5.41-5,8-7,14.84-14.7,19.79-24,2.91-5.47,4.61-11.31,3.55-17.6A21.41,21.41,0,0,1,78,109.11c.22-.46.46-.92.71-1.37s.52-.88.8-1.31.58-.85.89-1.26l.47-.6c.49-.6,1-1.17,1.53-1.72a22.62,22.62,0,0,1,1.69-1.56l.59-.48c.52-.42,1.06-.8,1.61-1.17l.5-.33c.56-.36,1.14-.69,1.73-1A20.79,20.79,0,0,1,92,96.87a21.22,21.22,0,0,1,11.08-.36A24.65,24.65,0,0,1,114,102.2l.26.24a77.26,77.26,0,0,1,5.82,6c.92,1,1.84,2.06,2.8,3.08.56-1.23,1.09-2.46,1.62-3.67.33-.76.62-1.43.88-2l.29-.65a2.08,2.08,0,0,1,.13-.3l.25-.56c.55-1.17,1.11-2.31,1.72-3.42a12.41,12.41,0,0,1,2.54-3.36l.29-.24.13-.11A2.69,2.69,0,0,1,131,97a6.85,6.85,0,0,1,1.25-.7c.22-.09.45-.17.68-.24l.11,0c.16,0,.31-.08.48-.12l.16,0,.47-.07.19,0h.75c.2,0,.4,0,.61,0l.67.06h.28l.11,0a.8.8,0,0,1,.15,0l.34,0h0l1.07.24.88.24.49.16.21.07c.56.2,1.09.4,1.57.62l.56.28.19.1.49.29.4.27a2.69,2.69,0,0,1,.27.2A4.88,4.88,0,0,1,144,99s.05,0,.08.07l0,0c.11.11.21.22.31.34a6,6,0,0,1,.52.72h0a2.55,2.55,0,0,1,.23.43,2,2,0,0,1,.1.21,2.72,2.72,0,0,1,.19.47,3.58,3.58,0,0,1,.11.35.14.14,0,0,1,0,.07,3.49,3.49,0,0,1,.1.38,9.77,9.77,0,0,1,.17,2.54c0,.37-.05.76-.11,1.17,0,.25-.07.51-.12.77-.69,4-1.58,8-2.56,12q-.6,2.46-1.25,4.9c-.48,1.86-1,3.72-1.48,5.58l-.15.58a6.59,6.59,0,0,0-.15,2.26,6.13,6.13,0,0,0,1.43,3.18l.75,1c6.63,8.41,13.28,16.82,19.66,25.41,1.59,2.14,3.17,4.29,4.72,6.46A58.77,58.77,0,0,1,174,181.42v0a44.6,44.6,0,0,1,2.39,8.81A21.29,21.29,0,0,1,174.81,202.44Z"/><path class="cls-2" d="M46.55,138.39c-.25,7.45-.86,14.84-5.36,21.2-2.66,3.77-5.68,4.63-10.09,3.25,0,0,0,0,0,0-7.39-2.31-13-7.27-17.81-12.92a5.88,5.88,0,0,1-.53-.59A63.13,63.13,0,0,1,2.59,133.23c-5-12.26-2.5-24,5.48-34.35a11.81,11.81,0,0,1,5.36-4.25c2.7-1,5.74-.54,9.22,1.16,9.22,4.57,15.22,12.23,19.61,21.29.22.48.45,1,.63,1.45A46.09,46.09,0,0,1,46.55,138.39Z"/><path class="cls-2" d="M85,69.35a63.74,63.74,0,0,1-3.61,19.9A32.71,32.71,0,0,1,78.63,95c-4.52,7.38-11.52,10-19.63,7-8.86-3.28-14.9-9.34-19.13-17.09a54.53,54.53,0,0,1-2.93-6.27c-3.79-9.59-2.73-19.43-.82-29.13,1.68-8.56,4.18-17,9.84-24,6.11-7.56,14-8.36,21.45-2,6.2,5.27,10,12.15,13,19.56a57.71,57.71,0,0,1,2.2,6.45A65.31,65.31,0,0,1,85,69.35Z"/><path class="cls-2" d="M149.22,40.15a81.1,81.1,0,0,1-2,17.16A59.78,59.78,0,0,1,138,78.41c-3.18,4.55-7,8.36-12.31,10.52-9.68,4-18.82-.09-22-10.13a75.89,75.89,0,0,1-3.11-13.29c-.73-5.34-1.75-10.68-2.41-16.06a64.32,64.32,0,0,1-.28-15.07c1.28-10.65,5.14-20.2,12.86-27.9,9-9,20.47-8.61,28.52,1.21a40.63,40.63,0,0,1,5.36,8.79C148,23.66,149,31.38,149.22,40.15Z"/><path class="cls-2" d="M201.88,111a142.15,142.15,0,0,1-2.15,15.26,82.67,82.67,0,0,1-6.12,18.84c-5.08,10.72-14.79,13.15-24.26,6-9.18-7-13.2-16.92-15.13-27.9a44.7,44.7,0,0,1-.55-10.56v0a142.7,142.7,0,0,1,2.66-17.79,151.52,151.52,0,0,1,3.77-15.36,22.83,22.83,0,0,1,3.18-6.5c2.73-4,6.62-5.45,11.41-4.45,8.11,1.68,13.56,7.06,18.17,13.38C198.75,89.89,201.84,99,201.88,111Z"/><path class="cls-1" d="M120.17,165.1a23.27,23.27,0,0,0-16.53-6.64c-9.73.25-17,6.93-20.09,13.19a21.67,21.67,0,0,0-2.42,9.64c.06,11.86.26,23.65.33,35.51,14.1-1.86,28.81-3.11,43-4.91a2.36,2.36,0,0,0,2.06-2.35V179A22.82,22.82,0,0,0,120.17,165.1Zm-2.46,46.17-5.37.57V198.1a6.57,6.57,0,0,0-6.67-6.72,7.26,7.26,0,0,0-.8,0,8.51,8.51,0,0,0-7.47,8.26v13.73L92,214V188.55a14.63,14.63,0,0,1,12.84-14.2,12.7,12.7,0,0,1,1.37-.07,11.29,11.29,0,0,1,11.47,11.56Z"/></g></g></svg>